Coordinates
version=1
nRows=13
nColumns=40
inDegrees=yes

Units are S.I. units (second, meters, Newtons, ...)
If the header above contains a line with 'inDegrees', this indicates whether rotational values are in degrees (yes) or radians (no).

endheader
time	pelvis_tilt	pelvis_list	pelvis_rotation	pelvis_tx	pelvis_ty	pelvis_tz	hip_flexion_r	hip_adduction_r	hip_rotation_r	knee_angle_r	knee_angle_r_beta	ankle_angle_r	subtalar_angle_r	mtp_angle_r	hip_flexion_l	hip_adduction_l	hip_rotation_l	knee_angle_l	knee_angle_l_beta	ankle_angle_l	subtalar_angle_l	mtp_angle_l	lumbar_extension	lumbar_bending	lumbar_rotation	arm_flex_r	arm_add_r	arm_rot_r	elbow_flex_r	pro_sup_r	wrist_flex_r	wrist_dev_r	arm_flex_l	arm_add_l	arm_rot_l	elbow_flex_l	pro_sup_l	wrist_flex_l	wrist_dev_l
      2.76000000	      7.09812828	      0.05697391	      7.21442592	      0.06815065	      0.87601918	     -0.33990442	     17.98228159	     -4.10073469	    -12.10851830	     11.11652941	      0.19402004	      7.39051146	      0.00000000	      0.00000000	    -17.58362321	      0.15802789	     -2.87116311	     21.71213740	      0.37894829	     22.43519780	      0.00000000	      0.00000000	    -19.04148046	      4.72308207	     -7.45995626	      0.00000000	    -10.88012566	      0.00000000	     74.94895565	     45.05425885	      0.00000000	      0.00000000	      0.00000000	    -10.88012566	      0.00000000	     74.94895565	     45.05425885	      0.00000000	      0.00000000
      2.76666667	      7.17112946	     -0.09376840	      7.24540080	      0.07771573	      0.87540289	     -0.33933267	     18.05503380	     -3.84087774	    -12.27646977	     12.31128490	      0.21487246	      7.58601446	      0.00000000	      0.00000000	    -17.76298990	     -0.27115841	     -3.03213151	     22.72836156	      0.39668474	     21.92125023	      0.00000000	      0.00000000	    -19.01161675	      4.96598546	     -7.51219577	      0.00000000	    -10.89033246	      0.00000000	     74.94920366	     45.05353242	      0.00000000	      0.00000000	      0.00000000	    -10.89033246	      0.00000000	     74.94920366	     45.05353242	      0.00000000	      0.00000000
      2.77333333	      7.15790990	     -0.27375833	      7.32223372	      0.08734559	      0.87473464	     -0.33868790	     18.21056339	     -3.56436152	    -12.42491173	     13.56042676	      0.23667409	      7.68911710	      0.00000000	      0.00000000	    -17.75186719	     -0.76417099	     -3.20870856	     23.88736527	      0.41691317	     21.18100608	      0.00000000	      0.00000000	    -18.82157898	      5.17409814	     -7.54046439	      0.00000000	    -10.90445189	      0.00000000	     74.94954574	     45.05254114	      0.00000000	      0.00000000	      0.00000000	    -10.90445189	      0.00000000	     74.94954574	     45.05254114	      0.00000000	      0.00000000
      2.78000000	      7.39303247	     -0.43448976	      7.32238594	      0.09700060	      0.87435899	     -0.33799354	     17.99412376	     -3.21849011	    -12.25816210	     14.60872286	      0.25497031	      7.59511474	      0.00000000	      0.00000000	    -18.03275913	     -1.22712349	     -3.36451445	     24.98912179	      0.43614245	     20.88788216	      0.00000000	      0.00000000	    -19.05862663	      5.42611318	     -7.55959215	      0.00000000	    -10.90794116	      0.00000000	     74.94963011	     45.05229833	      0.00000000	      0.00000000	      0.00000000	    -10.90794116	      0.00000000	     74.94963011	     45.05229833	      0.00000000	      0.00000000
      2.78666667	      7.20155094	     -0.71068423	      7.41424150	      0.10677137	      0.87349984	     -0.33722004	     18.33648841	     -2.87469025	    -12.43280223	     15.86120394	      0.27683023	      7.27894495	      0.00000000	      0.00000000	    -17.57649351	     -1.89517525	     -3.75266625	     26.56086160	      0.46357449	     19.43764387	      0.00000000	      0.00000000	    -18.52008111	      5.72113892	     -7.53213396	      0.00000000	    -10.92584549	      0.00000000	     74.95006196	     45.05106706	      0.00000000	      0.00000000	      0.00000000	    -10.92584549	      0.00000000	     74.95006196	     45.05106706	      0.00000000	      0.00000000
      2.79333333	      7.44052090	     -0.92770173	      7.42494176	      0.11652422	      0.87317769	     -0.33642232	     18.08565116	     -2.47916465	    -12.26889984	     16.86492426	      0.29434846	      7.07657570	      0.00000000	      0.00000000	    -17.68631675	     -2.48013098	     -4.02737921	     27.92124481	      0.48731765	     18.93983127	      0.00000000	      0.00000000	    -18.69347837	      6.00903973	     -7.53196701	      0.00000000	    -10.93074776	      0.00000000	     74.95017988	     45.05073405	      0.00000000	      0.00000000	      0.00000000	    -10.93074776	      0.00000000	     74.95017988	     45.05073405	      0.00000000	      0.00000000
      2.80000000	      7.22455471	     -1.28191169	      7.48878518	      0.12629278	      0.87241615	     -0.33549944	     18.34830888	     -1.98812467	    -12.09230857	     17.81594171	      0.31094684	      6.34407911	      0.00000000	      0.00000000	    -17.03304184	     -3.24139553	     -4.35939976	     29.71029492	      0.51854247	     16.83378356	      0.00000000	      0.00000000	    -18.17936247	      6.41585932	     -7.45588915	      0.00000000	    -10.95152443	      0.00000000	     74.95067817	     45.04934255	      0.00000000	      0.00000000	      0.00000000	    -10.95152443	      0.00000000	     74.95067817	     45.04934255	      0.00000000	      0.00000000
      2.80666667	      7.49349684	     -1.50125430	      7.50664865	      0.13601490	      0.87221647	     -0.33463531	     18.00342662	     -1.58110935	    -11.78154297	     18.66964647	      0.32584680	      6.13387149	      0.00000000	      0.00000000	    -16.99701495	     -3.86338511	     -4.56999497	     31.29860324	      0.54626368	     16.28810161	      0.00000000	      0.00000000	    -18.40053742	      6.70331148	     -7.43839934	      0.00000000	    -10.95582660	      0.00000000	     74.95078104	     45.04905826	      0.00000000	      0.00000000	      0.00000000	    -10.95582660	      0.00000000	     74.95078104	     45.04905826	      0.00000000	      0.00000000
      2.81333333	      7.21905577	     -1.96813236	      7.54959255	      0.14573554	      0.87149214	     -0.33361819	     18.27499223	     -0.95843576	    -11.48511022	     19.43924755	      0.33927887	      5.21724916	      0.00000000	      0.00000000	    -16.08105067	     -4.76025876	     -4.86045566	     33.31834035	      0.58151474	     13.19488839	      0.00000000	      0.00000000	    -17.80957722	      7.23212693	     -7.30762195	      0.00000000	    -10.98182216	      0.00000000	     74.95140032	     45.04737072	      0.00000000	      0.00000000	      0.00000000	    -10.98182216	      0.00000000	     74.95140032	     45.04737072	      0.00000000	      0.00000000
      2.82000000	      7.22654876	     -2.36350286	      7.60886752	      0.15541195	      0.87113073	     -0.33267587	     18.15273639	     -0.38166591	    -11.14701605	     20.07504483	      0.35037563	      4.85655715	      0.00000000	      0.00000000	    -15.45991495	     -5.60729793	     -5.05474836	     35.29655328	      0.61604107	     11.39775452	      0.00000000	      0.00000000	    -17.62908099	      7.72151255	     -7.22147681	      0.00000000	    -11.00118850	      0.00000000	     74.95185927	     45.04614359	      0.00000000	      0.00000000	      0.00000000	    -11.00118850	      0.00000000	     74.95185927	     45.04614359	      0.00000000	      0.00000000
      2.82666667	      7.24301198	     -2.69971630	      7.63244632	      0.16501115	      0.87083464	     -0.33170649	     18.03469824	      0.11202882	    -10.84063339	     20.77145335	      0.36253025	      4.50227559	      0.00000000	      0.00000000	    -14.78935845	     -6.36668660	     -5.19378453	     37.30024349	      0.65101206	      8.68745213	      0.00000000	      0.00000000	    -17.49928180	      8.08811679	     -7.12550161	      0.00000000	    -11.03364352	      0.00000000	     74.95262367	     45.04414515	      0.00000000	      0.00000000	      0.00000000	    -11.03364352	      0.00000000	     74.95262367	     45.04414515	      0.00000000	      0.00000000
      2.83333333	      7.20140581	     -3.11072181	      7.73889577	      0.17454858	      0.87055208	     -0.33078499	     17.90989995	      0.67527941	    -10.58850701	     21.33077919	      0.37229233	      4.44878409	      0.00000000	      0.00000000	    -13.90892754	     -7.21849484	     -5.18944365	     39.44147271	      0.68838356	      6.28730992	      0.00000000	      0.00000000	    -17.28385808	      8.56469242	     -7.00586894	      0.00000000	    -11.07124498	      0.00000000	     74.95350183	     45.04191883	      0.00000000	      0.00000000	      0.00000000	    -11.07124498	      0.00000000	     74.95350183	     45.04191883	      0.00000000	      0.00000000
      2.84000000	      7.13284999	     -3.53255488	      7.77085664	      0.18399453	      0.87029960	     -0.32988550	     17.80036091	      1.26977644	    -10.19992280	     21.88395637	      0.38194709	      4.53225393	      0.00000000	      0.00000000	    -12.92977994	     -8.03043277	     -5.17584341	     41.63500352	      0.72666790	      4.97304038	      0.00000000	      0.00000000	    -17.05628928	      9.12311362	     -6.89903009	      0.00000000	    -11.08684511	      0.00000000	     74.95386381	     45.04102264	      0.00000000	      0.00000000	      0.00000000	    -11.08684511	      0.00000000	     74.95386381	     45.04102264	      0.00000000	      0.00000000
